<svg aria-describedby="instagram-icon-desc" aria-labelledby="instagram-icon" height="20" viewBox="0 0 19 19" width="20" xmlns="http://www.w3.org/2000/svg"><path d="M9.342 1.88c2.428 0 2.715.009 3.674.052.886.04 1.368.188 1.688.312.425.164.728.36 1.046.676a2.8 2.8 0 0 1 .68 1.04c.124.319.272.797.313 1.68.044.953.053 1.239.053 3.653 0 2.415-.01 2.701-.053 3.655-.04.882-.189 1.36-.313 1.68a2.8 2.8 0 0 1-.68 1.039 2.818 2.818 0 0 1-1.046.676c-.32.124-.802.272-1.688.312-.959.043-1.246.053-3.674.053s-2.715-.01-3.674-.053c-.886-.04-1.368-.188-1.688-.312a2.818 2.818 0 0 1-1.046-.676 2.8 2.8 0 0 1-.68-1.04c-.124-.319-.272-.797-.313-1.68-.044-.953-.053-1.239-.053-3.654 0-2.414.01-2.7.053-3.654.04-.882.189-1.36.313-1.68a2.8 2.8 0 0 1 .68-1.039 2.819 2.819 0 0 1 1.046-.676c.32-.124.802-.272 1.688-.312.959-.043 1.246-.053 3.674-.053m0-1.629c2.47 0 2.779.01 3.749.054.967.044 1.628.197 2.207.42a4.46 4.46 0 0 1 1.61 1.044 4.43 4.43 0 0 1 1.049 1.602c.224.575.378 1.232.422 2.195.045.964.055 1.272.055 3.728 0 2.457-.01 2.765-.055 3.73-.044.962-.198 1.62-.422 2.194a4.43 4.43 0 0 1-1.049 1.602 4.46 4.46 0 0 1-1.61 1.043c-.579.224-1.24.377-2.207.42-.97.045-1.28.055-3.749.055-2.47 0-2.779-.01-3.749-.054-.967-.044-1.628-.197-2.207-.42a4.46 4.46 0 0 1-1.61-1.044 4.43 4.43 0 0 1-1.049-1.602c-.224-.575-.378-1.232-.422-2.195C.26 12.058.25 11.75.25 9.293c0-2.456.01-2.764.055-3.728.044-.963.198-1.62.422-2.195a4.43 4.43 0 0 1 1.049-1.602A4.46 4.46 0 0 1 3.386.725C3.965.5 4.626.348 5.593.305 6.563.26 6.873.25 9.342.25Zm0 4.522c-2.51 0-4.546 2.024-4.546 4.521 0 2.498 2.035 4.522 4.546 4.522 2.51 0 4.546-2.024 4.546-4.522 0-2.497-2.035-4.521-4.546-4.521Zm0 7.457a2.943 2.943 0 0 1-2.95-2.936 2.943 2.943 0 0 1 2.95-2.935c1.63 0 2.951 1.314 2.951 2.935a2.943 2.943 0 0 1-2.951 2.936Zm6.494-7.457c0-.714-.581-1.292-1.299-1.292-.717 0-1.298.578-1.298 1.292 0 .713.581 1.292 1.298 1.292.718 0 1.3-.579 1.3-1.292Z" fill-rule="evenodd"/></svg>