<svg aria-labelledby="pinterest-icon" height="20" width="17" xmlns="http://www.w3.org/2000/svg"><path d="M6.356.067c-3.361.37-6.71 3.06-6.849 6.9-.087 2.346.587 4.105 2.844 4.6.98-1.71-.316-2.086-.517-3.322-.828-5.066 5.908-8.52 9.433-4.984 2.44 2.45.834 9.983-3.1 9.2-3.768-.748 1.844-6.745-1.163-7.922-2.445-.957-3.745 2.927-2.585 4.856-.68 3.318-2.143 6.444-1.55 10.605 1.92-1.379 2.569-4.019 3.1-6.772.966.58 1.48 1.183 2.713 1.277 4.544.348 7.082-4.485 6.462-8.943-.551-3.952-4.54-5.964-8.788-5.495Z"/></svg>