<svg aria-labelledby="twitter-icon" height="16" width="19" xmlns="http://www.w3.org/2000/svg"><path d="M18.609 2.25a7.603 7.603 0 0 1-2.163.588A3.744 3.744 0 0 0 18.102.774a7.576 7.576 0 0 1-2.392.904A3.773 3.773 0 0 0 12.96.5c-2.079 0-3.765 1.67-3.765 3.732 0 .292.032.576.096.849A10.724 10.724 0 0 1 1.53 1.182a3.694 3.694 0 0 0-.51 1.878c0 1.292.665 2.435 1.675 3.105a3.782 3.782 0 0 1-1.706-.466v.046c0 1.81 1.298 3.318 3.022 3.66-.317.087-.65.131-.993.131-.243 0-.479-.022-.708-.066a3.763 3.763 0 0 0 3.518 2.59 7.594 7.594 0 0 1-4.678 1.597c-.304 0-.605-.016-.899-.051a10.746 10.746 0 0 0 5.774 1.677c6.928 0 10.716-5.687 10.716-10.62 0-.161-.004-.322-.01-.481A7.572 7.572 0 0 0 18.61 2.25"/></svg>